HIERARCHY
ROOT Hips
{
	OFFSET -3.958830 18.904000 13.208200
	CHANNELS 6 Xposition Yposition Zposition Zrotation Yrotation Xrotation 
	JOINT LHipJoint
	{
		OFFSET 0.000000 0.000000 0.000000
		CHANNELS 3 Zrotation Yrotation Xrotation
		JOINT LeftUpLeg
		{
			OFFSET 1.800000 -1.400000 0.085000
			CHANNELS 3 Zrotation Yrotation Xrotation
			JOINT LeftLeg
			{
				OFFSET 2.215000 -6.000000 0.000000
				CHANNELS 3 Zrotation Yrotation Xrotation
				JOINT LeftFoot
				{
					OFFSET 2.500000 -6.900000 0.000000
					CHANNELS 3 Zrotation Yrotation Xrotation
					JOINT LeftToeBase
					{
						OFFSET 0.200000 -0.500000 1.950000
						CHANNELS 3 Zrotation Yrotation Xrotation
						End Site
						{
							OFFSET 0.000000 0.000000 0.000000
						}
					}
				}
			}
		}
	}
	JOINT RHipJoint
	{
		OFFSET 0.000000 0.000000 0.000000
		CHANNELS 3 Zrotation Yrotation Xrotation
		JOINT RightUpLeg
		{
			OFFSET -1.800000 -1.400000 0.085000
			CHANNELS 3 Zrotation Yrotation Xrotation
			JOINT RightLeg
			{
				OFFSET -2.215000 -6.000000 0.000000
				CHANNELS 3 Zrotation Yrotation Xrotation
				JOINT RightFoot
				{
					OFFSET -2.500000 -6.900000 0.000000
					CHANNELS 3 Zrotation Yrotation Xrotation
					JOINT RightToeBase
					{
						OFFSET -0.200000 -0.500000 1.950000
						CHANNELS 3 Zrotation Yrotation Xrotation
						End Site
						{
							OFFSET 0.000000 0.000000 0.000000
						}
					}
				}
			}
		}
	}
	JOINT LowerBack
	{
		OFFSET 0.000000 0.000000 0.000000
		CHANNELS 3 Zrotation Yrotation Xrotation
		JOINT Spine
		{
			OFFSET -0.087000 1.940000 -0.288900
			CHANNELS 3 Zrotation Yrotation Xrotation
			JOINT Spine1
			{
				OFFSET 0.000000 1.950000 0.060000
				CHANNELS 3 Zrotation Yrotation Xrotation
				JOINT Neck
				{
					OFFSET 0.000000 0.000000 0.000000
					CHANNELS 3 Zrotation Yrotation Xrotation
					JOINT Neck1
					{
						OFFSET 0.000000 1.600000 0.340000
						CHANNELS 3 Zrotation Yrotation Xrotation
						JOINT Head
						{
							OFFSET 0.000000 1.667000 -0.240000
							CHANNELS 3 Zrotation Yrotation Xrotation
							End Site
							{
								OFFSET 0.000000 0.000000 0.000000
							}
						}
					}
				}
				JOINT LeftShoulder
				{
					OFFSET 0.000000 0.000000 0.000000
					CHANNELS 3 Zrotation Yrotation Xrotation
					JOINT LeftArm
					{
						OFFSET 2.700000 1.550000 -0.730000
						CHANNELS 3 Zrotation Yrotation Xrotation
						JOINT LeftForeArm
						{
							OFFSET 5.450000 0.000000 0.000000
							CHANNELS 3 Zrotation Yrotation Xrotation
							JOINT LeftHand
							{
								OFFSET 3.450000 0.000000 0.000000
								CHANNELS 3 Zrotation Yrotation Xrotation
								JOINT LeftHandIndex1
								{
									OFFSET 0.750000 0.000000 0.000000
									CHANNELS 3 Zrotation Yrotation Xrotation
									End Site
									{
										OFFSET 0.000000 0.000000 0.000000
									}
								}
							}
						}
					}
				}
				JOINT RightShoulder
				{
					OFFSET 0.000000 0.000000 0.000000
					CHANNELS 3 Zrotation Yrotation Xrotation
					JOINT RightArm
					{
						OFFSET -2.700000 1.550000 -0.730000
						CHANNELS 3 Zrotation Yrotation Xrotation
						JOINT RightForeArm
						{
							OFFSET -5.450000 0.000000 0.000000
							CHANNELS 3 Zrotation Yrotation Xrotation
							JOINT RightHand
							{
								OFFSET -3.450000 0.000000 0.000000
								CHANNELS 3 Zrotation Yrotation Xrotation
								JOINT RightHandIndex1
								{
									OFFSET -0.750000 0.000000 0.000000
									CHANNELS 3 Zrotation Yrotation Xrotation
									End Site
									{
										OFFSET 0.000000 0.000000 0.000000
									}
								}
							}
						}
					}
				}
			}
		}
	}
}
MOTION
Frames: 14
Frame Time: 0.016667
0.809380 17.149420 -4.686980 -4.922294 -34.545379 -3.243432 -15.371716 13.824267 3.868254 3.818250 3.081976 12.538951 -9.625009 5.940533 -0.930341 0.953290 4.827506 2.944549 0.583710 0.812580 0.298140 17.961582 -10.032174 3.170036 -9.726290 0.398315 -28.137476 5.747130 -2.300746 3.784384 -0.038318 -1.704322 3.720304 0.271720 -0.295290 -0.010110 -2.312269 -3.489306 -8.634565 0.166430 -4.064087 15.597876 2.056472 -4.052496 -5.225087 2.628511 -1.307056 -14.669199 -7.739076 0.434292 45.791364 2.010860 -1.720400 -4.936770 -7.299520 -10.113366 4.361097 4.009404 -8.562477 -0.415569 3.792439 11.615605 0.014146 -3.721341 2.936017 0.080060 -0.222680 0.336380 0.279650 3.434600 11.797288 10.950611 -2.104650 -6.093531 0.365819 -3.942865 0.915856 -0.347659 3.121474 -1.319817 0.269450 -0.135440 -0.554860 0.172520 
0.797780 17.134800 -4.684860 -4.991801 -34.626795 -2.798778 -15.362468 13.786776 3.836154 4.079623 2.984289 12.166685 -10.037243 6.036297 -0.748580 0.939085 4.877594 2.964832 0.498930 0.722500 0.233500 17.974625 -10.017395 3.212610 -9.469028 0.540012 -28.204192 5.735441 -2.200163 3.095301 0.005954 -1.708452 3.752955 0.241460 -0.221530 -0.042880 -2.365756 -3.411333 -8.632789 0.355747 -4.209423 14.791044 1.831704 -4.190734 -4.791917 2.528504 -1.383010 -14.907578 -7.673248 0.737310 45.323773 1.981250 -1.505390 -3.050780 -7.711384 -10.646843 4.776096 4.843893 -7.026479 -0.768569 6.531795 10.193477 0.257285 -3.756227 2.887484 0.061850 -0.178890 0.277980 0.274930 3.968247 12.304832 10.999806 -3.412852 -6.645910 0.465334 -2.721788 1.811199 -0.382696 3.087363 -1.296058 0.210940 -0.092540 -0.513160 0.174570 
0.784550 17.129130 -4.668090 -5.162427 -34.997825 -2.051477 -15.330005 13.699712 3.793897 4.003725 2.896129 11.744439 -9.744148 5.916396 -0.900465 0.883498 4.838989 2.976003 0.497680 0.676870 0.236590 18.009532 -9.978390 3.325692 -9.731460 0.658376 -28.161687 6.530441 -2.107984 1.591737 0.001598 -1.792179 3.713855 0.227350 -0.213950 -0.026710 -2.517176 -3.260528 -8.657600 1.375677 -4.456685 13.980208 0.613064 -4.170586 -5.374270 2.555688 -1.509864 -14.575617 -7.632904 0.810738 44.596190 2.469080 -1.778990 -2.641340 -8.555050 -10.315174 4.615571 5.686632 -5.599705 -1.050064 9.766873 7.077780 0.370031 -3.714341 2.954010 0.080350 -0.172800 0.245670 0.258540 4.614601 12.052570 10.626199 -5.091728 -6.883717 0.487494 -2.024351 1.573585 -0.437615 3.065513 -1.332568 0.198100 -0.120000 -0.489910 0.149550 
0.760880 17.117750 -4.653820 -5.150564 -35.057104 -1.246938 -15.340852 13.574111 3.739619 3.907822 2.843012 11.474671 -9.626879 5.791202 -1.444331 0.870526 4.836802 3.005726 0.429190 0.596900 0.182140 18.025575 -9.890193 3.415282 -9.830372 0.745470 -28.089843 6.968504 -1.895616 -0.337542 0.030655 -1.892117 3.696029 0.201810 -0.149980 -0.037760 -2.590672 -3.132765 -8.647663 1.577086 -4.432377 12.386888 0.159067 -4.177636 -4.790981 2.446991 -1.338574 -14.258430 -7.038386 0.304318 43.127495 2.141950 -2.135450 -0.802150 -9.434252 -10.681135 4.518936 7.757774 -5.146505 -1.246574 10.322142 6.035016 0.329949 -3.744445 2.956947 0.039470 -0.124170 0.179600 0.248680 5.614604 12.080709 10.452388 -7.125814 -8.320737 0.593127 -2.149588 1.442182 -0.502869 3.045026 -1.374099 0.163050 -0.110310 -0.450950 0.154640 
0.730370 17.122000 -4.636460 -5.382220 -35.173001 -0.761407 -15.364203 13.537605 3.730302 4.323605 2.705283 11.519774 -9.810222 5.777998 -1.805818 0.838489 4.906447 2.983710 0.406020 0.540580 0.205010 18.013835 -9.820285 3.450581 -9.656131 0.855791 -27.433172 7.045666 -1.737418 -1.693627 0.021204 -1.919780 3.681284 0.181210 -0.158560 -0.045140 -2.552755 -3.164247 -8.676606 1.570412 -4.459326 11.436389 0.425311 -4.256341 -4.804977 2.571433 -1.449972 -14.122080 -7.433806 0.112884 43.722576 1.315830 -2.196390 -0.990490 -9.612042 -10.581543 4.478961 8.119052 -4.852602 -1.200866 10.504560 5.493050 0.289692 -3.746297 2.920353 0.070490 -0.129090 0.167870 0.207760 5.609080 12.085788 10.229642 -8.393093 -8.582564 0.619473 -1.232630 2.210674 -0.482616 3.008463 -1.355338 0.136640 -0.098620 -0.417200 0.117540 
0.715330 17.134410 -4.628850 -5.793983 -35.346778 -0.604806 -15.347659 13.577985 3.730104 4.688132 2.531788 11.367763 -9.727252 5.835578 -1.452889 0.721698 4.996039 2.963080 0.369530 0.433970 0.231710 18.015412 -9.826643 3.474104 -9.312288 0.959777 -26.827848 7.033009 -1.699868 -2.168384 0.024638 -1.902157 3.678422 0.156970 -0.142850 -0.073710 -2.562012 -3.217174 -8.721082 1.953277 -4.551386 11.678794 0.328058 -4.172617 -5.682719 2.560935 -1.530581 -14.154709 -7.879259 0.235871 45.060181 1.849560 -2.727250 -1.628170 -9.785817 -10.707443 4.411624 8.835406 -4.951707 -1.045377 9.329459 5.371172 0.096771 -3.763536 2.805863 0.162650 -0.144100 0.136040 0.151960 5.832996 12.265658 10.117888 -9.320221 -8.611038 0.479393 -0.479999 2.050068 -0.464553 2.966278 -1.285760 0.052680 -0.044060 -0.351580 0.049370 
0.709210 17.137290 -4.629690 -5.845842 -35.717027 -0.614204 -15.348516 13.584353 3.717305 4.436523 2.540478 11.380882 -9.309338 5.803675 -1.189938 0.650733 4.999150 2.951822 0.353840 0.388670 0.241570 18.016795 -9.841132 3.468513 -8.937498 1.021559 -26.728210 6.868151 -1.698872 -2.188104 0.025932 -1.872243 3.669571 0.148740 -0.146440 -0.076540 -2.557097 -3.205602 -8.697525 1.704571 -4.470492 11.526436 0.394254 -4.138832 -5.244477 2.436145 -1.264994 -14.285754 -7.456673 0.141240 45.399308 2.184900 -2.791990 -2.271420 -9.675900 -11.425065 4.553664 10.454196 -5.471465 -0.976249 6.350481 7.226289 -0.187550 -3.802913 2.739734 0.213070 -0.155630 0.130700 0.122120 5.953215 12.631515 10.210937 -9.666432 -8.421676 0.390262 -0.298769 1.583411 -0.456189 2.954026 -1.251881 0.017050 -0.032340 -0.316760 0.015220 
0.692220 17.137560 -4.634150 -5.571326 -35.400706 -0.712563 -15.371072 13.590500 3.677421 4.510550 2.496175 11.202296 -9.308773 5.883113 -0.680977 0.624824 5.020168 2.947956 0.339100 0.357550 0.236560 18.000214 -9.823286 3.468827 -9.028242 0.934284 -26.566441 6.701015 -1.655870 -2.649120 0.029407 -1.891034 3.668543 0.138280 -0.133110 -0.081180 -2.493744 -3.239820 -8.671505 0.798402 -4.434235 11.136198 0.946826 -4.319135 -4.908682 2.271310 -1.324051 -14.187699 -7.724649 0.048904 45.495538 2.408320 -3.183430 -2.247000 -9.922291 -11.926434 4.566533 11.277439 -6.179717 -0.919864 4.140847 8.649516 -0.421458 -3.827141 2.708735 0.222990 -0.151790 0.114490 0.110880 6.637327 13.003852 10.087996 -11.138873 -8.985750 0.413379 0.331014 1.259122 -0.506009 2.934280 -1.252943 0.001560 -0.019240 -0.295380 0.004830 
0.678420 17.135550 -4.644570 -6.018352 -34.946742 -0.404973 -15.366967 13.613120 3.668009 5.286847 2.253643 10.946687 -9.940702 6.041013 -0.366419 0.628490 5.079141 2.932398 0.331320 0.349330 0.233250 17.998877 -9.798694 3.476421 -8.950287 0.949622 -26.512355 6.938221 -1.663147 -2.712802 0.026701 -1.888175 3.678241 0.131980 -0.137240 -0.091610 -2.500314 -3.313867 -8.691108 1.067047 -4.725300 11.147296 0.902693 -4.555447 -4.784457 2.258539 -1.374212 -14.341605 -8.013225 -0.143367 45.770913 2.155920 -3.431370 -2.295740 -10.007232 -12.256037 4.652775 11.796707 -5.971448 -0.946517 4.388161 7.323583 -0.374845 -3.795412 2.689019 0.233700 -0.158120 0.117870 0.110700 6.727535 13.283940 10.240379 -11.298311 -9.209280 0.381494 0.249860 1.008729 -0.502615 2.938419 -1.234974 -0.005850 -0.010020 -0.295320 0.002450 
0.663230 17.131250 -4.649350 -5.750920 -34.410049 -0.385175 -15.388300 13.608944 3.635649 5.341268 2.197509 10.664291 -9.996056 6.085376 -0.042700 0.655885 5.049682 2.948354 0.312500 0.341540 0.213410 17.981972 -9.792545 3.472562 -9.190575 0.847137 -26.739142 6.880017 -1.664469 -2.738277 0.032831 -1.898303 3.679192 0.116560 -0.130010 -0.092760 -2.440029 -3.306558 -8.667696 0.114221 -4.777312 10.677027 1.429859 -4.870246 -4.090198 2.200526 -1.202114 -14.639978 -7.682074 -0.386704 45.659680 2.048460 -3.563240 -1.481500 -9.721643 -12.659190 5.078690 10.992109 -5.377163 -0.916614 5.628628 5.805382 -0.198247 -3.773979 2.705996 0.210100 -0.151890 0.115660 0.116810 6.556527 13.512607 10.410588 -11.349268 -9.294704 0.371482 0.451389 0.379175 -0.550278 2.969019 -1.231487 0.005060 -0.019120 -0.300340 0.020130 
0.653780 17.127040 -4.660220 -5.589636 -34.769398 -0.651300 -15.386760 13.583300 3.629070 5.294032 2.302082 10.923183 -10.178218 6.156236 0.106178 0.684682 5.063653 2.936178 0.319320 0.374810 0.195320 17.988796 -9.816915 3.460246 -9.079446 0.851134 -27.047090 6.824464 -1.692223 -2.416019 0.034496 -1.875638 3.690040 0.127130 -0.127480 -0.084410 -2.455273 -3.217969 -8.630242 -0.333891 -4.628411 10.947503 1.334898 -4.812963 -3.590465 2.123290 -1.098183 -14.610674 -7.213883 -0.471852 44.993700 2.370300 -3.523930 -2.115830 -9.173842 -12.322507 5.134088 9.873675 -4.858054 -0.928332 8.077106 3.505776 -0.013153 -3.749185 2.750039 0.187870 -0.147010 0.124470 0.126610 6.071934 13.199326 10.412778 -10.462932 -8.200331 0.298781 -0.101955 -0.343256 -0.542558 2.991716 -1.219093 0.028190 -0.019560 -0.302180 0.039040 
0.646320 17.122980 -4.660740 -5.560494 -35.279556 -0.642534 -15.407918 13.564561 3.642508 5.003597 2.380342 11.154856 -9.917186 6.024364 -0.402651 0.677910 5.066457 2.948582 0.326780 0.386750 0.195180 17.980753 -9.804229 3.436018 -9.027135 0.887718 -27.480784 6.950971 -1.752512 -1.874337 0.042896 -1.847961 3.709098 0.140230 -0.100480 -0.082920 -2.413054 -3.215627 -8.595504 -0.791236 -4.328594 10.965801 1.838623 -4.637710 -3.427996 1.953659 -0.958536 -14.294867 -6.807267 -0.604717 44.282827 2.743510 -3.595600 -2.828560 -9.294082 -12.409203 4.887465 10.709490 -6.057340 -0.935474 6.606151 5.234842 -0.138357 -3.795376 2.712618 0.184810 -0.132190 0.119610 0.138300 6.577844 13.106208 10.229639 -11.108272 -7.810992 0.200886 -1.767412 -0.756219 -0.493045 2.982614 -1.217244 0.020640 0.010600 -0.300710 0.044320 
0.632370 17.122620 -4.666070 -5.207316 -35.437901 -0.687591 -15.432675 13.550505 3.622504 4.942123 2.388988 11.038782 -10.123664 6.075399 -0.195436 0.653494 5.079157 2.938044 0.324950 0.383270 0.218330 17.964598 -9.780886 3.439509 -9.196267 0.880827 -27.810489 7.105931 -1.770377 -1.816040 0.045114 -1.848248 3.696840 0.147520 -0.115350 -0.088370 -2.348760 -3.214107 -8.570450 -1.742643 -4.195592 10.782010 2.263801 -4.736586 -3.122373 1.996988 -0.633212 -14.302433 -6.068349 -0.727499 43.897749 1.879050 -2.860630 -3.177060 -9.265867 -12.589072 4.904019 10.984729 -6.351388 -0.997347 6.435409 6.137381 -0.171157 -3.826491 2.682391 0.193270 -0.129880 0.121550 0.119620 6.474336 12.988553 10.307611 -10.073455 -7.240552 0.149659 -2.774129 -0.397806 -0.414745 2.979943 -1.206330 0.007150 0.010990 -0.298670 0.023670 
0.622320 17.110430 -4.677040 -5.518701 -36.306374 -0.512338 -15.449484 13.492450 3.634243 5.473982 2.297667 11.307328 -10.970513 6.140016 -0.715142 0.650223 5.213502 2.905483 0.318370 0.366810 0.218740 17.972548 -9.736914 3.408246 -8.703897 1.092110 -28.158409 7.044614 -1.756528 -1.500387 0.070216 -1.813176 3.704903 0.159540 -0.096210 -0.097360 -2.366075 -3.194227 -8.513609 -1.658651 -4.000968 10.570079 2.368210 -4.589478 -1.767064 1.795931 -0.721882 -14.221857 -5.924853 -0.768455 42.419766 1.784270 -2.723740 -3.195560 -8.744236 -12.547971 4.969387 10.912781 -6.364870 -0.934548 6.144906 6.644352 -0.211748 -3.851905 2.676635 0.192760 -0.116360 0.096230 0.115980 6.277474 13.023231 10.351696 -9.493917 -6.397952 0.085145 -3.554725 -0.558464 -0.398317 2.978080 -1.216850 -0.021420 0.022030 -0.290700 0.012930 
